<svg xmlns="http://www.w3.org/2000/svg" xmlns:xlink="http://www.w3.org/1999/xlink"
    viewBox="0,0,256,256" width="32px" height="32px" fill-rule="nonzero">
    <g fill="#7c3aed" fill-rule="nonzero" stroke="none" stroke-width="1" stroke-linecap="butt"
        stroke-linejoin="miter" stroke-miterlimit="10" stroke-dasharray="" stroke-dashoffset="0"
        font-family="none" font-weight="none" font-size="none" text-anchor="none"
        style="mix-blend-mode: normal">
        <g transform="scale(5.33333,5.33333)">
            <path
                d="M24,4c-11.02793,0 -20,8.97207 -20,20c0,11.02793 8.97207,20 20,20c11.02793,0 20,-8.97207 20,-20c0,-11.02793 -8.97207,-20 -20,-20zM23.5,11c0.829,0 1.5,0.671 1.5,1.5v1.04297c2.267,0.209 4.20855,1.79153 4.81055,4.01953c0.216,0.8 -0.25664,1.62384 -1.05664,1.83984c-0.804,0.213 -1.6248,-0.25764 -1.8418,-1.05664c-0.293,-1.086 -1.28511,-1.8457 -2.41211,-1.8457h-1.75c-1.517,0 -2.75,1.233 -2.75,2.75c0,1.517 1.233,2.75 2.75,2.75h2c3.446,0 6.25,2.804 6.25,6.25c0,3.362 -2.67,6.10433 -6,6.23633v1.01367c0,0.829 -0.671,1.5 -1.5,1.5c-0.829,0 -1.5,-0.671 -1.5,-1.5v-1.04297c-2.288,-0.21 -4.23427,-1.81141 -4.82227,-4.06641c-0.209,-0.802 0.27027,-1.62108 1.07227,-1.83008c0.805,-0.208 1.62108,0.27027 1.83008,1.07227c0.287,1.1 1.27997,1.86719 2.41797,1.86719h2.25c1.792,0 3.25,-1.458 3.25,-3.25c0,-1.792 -1.45605,-3.25 -3.24805,-3.25h-2c-3.17,0 -5.75,-2.58 -5.75,-5.75c0,-2.916 2.184,-5.32631 5,-5.69531v-1.05469c0,-0.829 0.671,-1.5 1.5,-1.5z"></path>
        </g>
    </g>
</svg>