<svg xmlns="http://www.w3.org/2000/svg" viewBox="0 0 100 100" width="1500" height="1500">
    <g
        transform="translate(56.0 35.0) rotate(0.0 10.5 7.0) scale(0.06257188317531451 0.06241891114667998)">
        <svg width="335.614" height="224.291" viewBox="0 0 335.614 224.291">
            <clipPath id="a">
                <path d="M5.582-231.516h401.779v199.04H5.582z" />
            </clipPath>
            <clipPath id="b">
                <path d="M19.959 8.708h277.768v169.981H19.959z" />
            </clipPath>
            <g clip-path="url(#a)">
                <path
                    d="M122.933-165.284s257.407 57.62 263.772 59.5C373.64-81.015 343.609 9.449 322.959 51.312 252.519 34.119-31.098-44.53-31.098-44.53z"
                    fill="#3fb19a" />
                <path
                    d="M322.959 52.062a.773.773 0 0 1-.178-.021c-69.646-17-351.244-95.062-354.08-95.849a.749.749 0 0 1-.263-1.313L122.47-165.874a.75.75 0 0 1 .627-.142c10.511 2.353 257.503 57.647 263.82 59.512a.75.75 0 0 1 .452 1.069c-6.081 11.528-16.091 37.974-26.689 65.974-12.2 32.231-26.028 68.762-37.048 91.104a.752.752 0 0 1-.673.419zM-29.467-44.856c21.849 6.054 284.023 78.65 352.019 95.297 10.945-22.324 24.635-58.492 36.725-90.432 10.367-27.388 20.172-53.292 26.329-65.303-17.28-4.277-251.951-56.82-262.489-59.179z"
                    fill="#005e4c" />
            </g>
            <g clip-path="url(#a)">
                <path
                    d="M380.809 78.695-23.941-.611l132.34-142.309 288.766 47.594S382.35 18.373 380.809 78.695z"
                    fill="#fff" />
                <path
                    d="M380.81 79.445a.78.78 0 0 1-.144-.014L-24.085.125a.749.749 0 0 1-.405-1.246L107.849-143.43a.745.745 0 0 1 .671-.229l288.766 47.594a.75.75 0 0 1 .622.837c-.148 1.137-14.827 114.351-16.349 173.943a.749.749 0 0 1-.749.73zM-22.474-1.088l402.557 78.877c1.576-57.383 14.99-162.745 16.245-172.492l-287.655-47.411z"
                    fill="#005e4c" />
            </g>
            <g clip-path="url(#b)">
                <circle cx="96.189" cy="128.103" fill="#fff" r="95.439" />
                <g fill="#005e4c">
                    <path
                        d="M96.189 224.291C43.15 224.291 0 181.141 0 128.103s43.15-96.189 96.188-96.189 96.188 43.15 96.188 96.189-43.149 96.188-96.187 96.188zm0-190.877C43.977 33.414 1.5 75.891 1.5 128.103c0 52.211 42.477 94.688 94.688 94.688s94.688-42.477 94.688-94.688c.001-52.212-42.476-94.689-94.687-94.689z" />
                    <path
                        d="M181.395 85.123c-13.581-26.869-39.474-46.449-70.278-51.289l-14.928 94.269z" />
                    <path
                        d="M96.189 128.853a.753.753 0 0 1-.741-.867l14.928-94.269a.755.755 0 0 1 .857-.624c30.407 4.777 56.886 24.101 70.831 51.691a.75.75 0 0 1-.332 1.008l-85.206 42.98a.747.747 0 0 1-.337.081zm15.551-94.159-14.582 92.079 83.226-41.981c-13.701-26.58-39.269-45.241-68.644-50.098z" />
                </g>
                <path d="m96.188 128.103 92.782-22.346a94.793 94.793 0 0 0-7.575-20.634z"
                    fill="#37ffb0" />
                <path
                    d="M96.188 128.853a.751.751 0 0 1-.338-1.42l85.206-42.98a.749.749 0 0 1 1.007.331 95.695 95.695 0 0 1 7.636 20.797.75.75 0 0 1-.554.904l-92.782 22.346a.7.7 0 0 1-.175.022zm84.873-42.722-78.758 39.728 85.761-20.655a94.311 94.311 0 0 0-7.003-19.073z"
                    fill="#005e4c" />
                <path
                    d="M191.627 128.103c0-7.699-.936-15.175-2.657-22.346l-92.782 22.346 22.201 92.815c41.998-10.011 73.238-47.753 73.238-92.815z"
                    fill="#3fb19a" />
                <path
                    d="M118.389 221.668a.752.752 0 0 1-.729-.576l-22.201-92.815a.75.75 0 0 1 .554-.904l92.782-22.346a.748.748 0 0 1 .905.555 96.675 96.675 0 0 1 2.677 22.521c0 22.07-7.273 42.825-21.034 60.021-13.355 16.689-32.1 28.594-52.78 33.524a.808.808 0 0 1-.174.02zm-21.297-93.012 21.851 91.355c20.068-4.956 38.238-16.592 51.228-32.825 13.546-16.927 20.706-37.357 20.706-59.083 0-7.174-.829-14.384-2.464-21.44z"
                    fill="#005e4c" />
            </g>
            <path clip-path="url(#b)"
                d="M96.188 128.853a.755.755 0 0 1-.309-.067L8.932 89.377a.751.751 0 0 1 .619-1.367l86.947 39.409a.751.751 0 0 1-.31 1.434z"
                fill="#005e4c" />
            <path
                d="M297.727 179.439H19.959a.75.75 0 0 1-.75-.75V8.708a.75.75 0 0 1 .75-.75h277.769a.75.75 0 0 1 .75.75v169.981a.751.751 0 0 1-.751.75zm-277.018-1.5h276.269V9.458H20.709z"
                fill="#005e4c" />
            <path d="M201.853.75h73.895v35.231h-73.895z" fill="#3fb19a" />
            <path
                d="M275.748 36.731h-73.895a.75.75 0 0 1-.75-.75V.75a.75.75 0 0 1 .75-.75h73.895a.75.75 0 0 1 .75.75v35.231a.75.75 0 0 1-.75.75zm-73.144-1.5h72.395V1.5h-72.395z"
                fill="#005e4c" />
            <path d="M238.801 117.718h96.063v35.231h-96.063z" fill="#3fb19a" />
            <g fill="#005e4c">
                <path
                    d="M334.864 153.7h-96.063a.75.75 0 0 1-.75-.75v-35.231a.75.75 0 0 1 .75-.75h96.063a.75.75 0 0 1 .75.75v35.231a.75.75 0 0 1-.75.75zm-95.313-1.5h94.563v-33.731h-94.563zM151.612 51.177a.75.75 0 0 1-.626-1.162l21.062-32.061a.751.751 0 0 1 .627-.338h29.179a.75.75 0 0 1 0 1.5H173.08l-20.84 31.723a.75.75 0 0 1-.628.338z" />
                <path
                    d="M188.786 152.054a.748.748 0 0 1-.228-1.464l50.015-15.97a.749.749 0 1 1 .456 1.428l-50.015 15.97a.724.724 0 0 1-.228.036zm84.436-90.301h-42.947a.75.75 0 0 1 0-1.5h42.947a.75.75 0 0 1 0 1.5zm0 14.142h-27.79a.75.75 0 0 1 0-1.5h27.79a.75.75 0 0 1 0 1.5zm-13.895-62.464h-38.653a.75.75 0 0 1 0-1.5h38.653a.75.75 0 0 1 0 1.5zM240.001 24.8H222.19a.75.75 0 0 1 0-1.5h17.811a.75.75 0 0 1 0 1.5zm37.263 111.284H255.79a.75.75 0 0 1 0-1.5h21.474a.75.75 0 0 1 0 1.5zm48.505 0h-36.884a.75.75 0 0 1 0-1.5h36.884a.75.75 0 0 1 0 1.5z" />
            </g>
        </svg>
    </g>
    <g
        transform="translate(65.0 51.0) rotate(0.0 5.0 5.0) scale(0.018273150711465125 0.018273150711465125)">
        <svg width="547.251" height="547.251" viewBox="0 0 547.251 547.251">
            <circle cx="273.626" cy="273.626" fill="#fff" r="266.087" />
            <path
                d="M273.126 547.32c-49.538 0-98.28-13.553-141.684-39.956C69.007 469.386 25.1 409.367 7.807 338.365c-17.291-71.002-5.898-144.489 32.08-206.923S137.884 25.101 208.886 7.809c71.002-17.293 144.489-5.9 206.923 32.078 62.434 37.979 106.341 97.997 123.634 168.999 17.292 71.002 5.899 144.489-32.079 206.923S409.368 522.15 338.365 539.443c-21.643 5.271-43.518 7.877-65.238 7.877zm.926-532.22c-87.368 0-172.721 44.196-221.351 124.139C16.805 198.25 6.038 267.707 22.382 334.817c16.345 67.109 57.845 123.837 116.855 159.733 41.021 24.953 87.098 37.763 133.916 37.765 20.534 0 41.202-2.462 61.661-7.445 67.109-16.344 123.838-57.844 159.734-116.855 74.102-121.817 35.281-281.209-86.535-355.311-41.875-25.472-88.198-37.603-133.962-37.603z"
                fill="#1e284c" />
            <path
                d="M273.283 481.425c-36.791 0-74.012-9.747-107.676-30.224C67.692 391.639 36.49 263.523 96.051 165.608c59.563-97.915 187.681-129.116 285.593-69.556 97.915 59.561 129.117 187.678 69.556 285.593-39.084 64.25-107.699 99.78-177.917 99.78zm.661-400.602c-65.157 0-128.811 32.96-165.078 92.579-55.263 90.849-26.312 209.719 64.536 264.982 90.85 55.264 209.719 26.312 264.983-64.536 55.263-90.849 26.312-209.72-64.536-264.982-31.229-18.997-65.775-28.043-99.905-28.043z"
                fill="#dea2ff" />
            <g fill="#1e284c">
                <path
                    d="M355.011 343.602c6.626-19.613-.304-35.592-9.741-45.991-2.286-2.52-.979-6.522 2.301-7.425 13.208-3.638 24.427-13.672 29.912-29.909 7.633-22.596-.625-47.279-32.287-63.215-2.022-1.017-3.003-3.356-2.278-5.5l4.943-14.634a4.529 4.529 0 0 0-2.841-5.739l-27.038-9.134a4.529 4.529 0 0 0-5.739 2.841l-4.566 13.517a4.529 4.529 0 0 1-5.739 2.841l-7.841-2.649a4.529 4.529 0 0 1-2.841-5.739l4.566-13.517a4.529 4.529 0 0 0-2.841-5.739l-27.038-9.134a4.529 4.529 0 0 0-5.739 2.841l-4.566 13.517a4.529 4.529 0 0 1-5.739 2.841l-7.962-2.69-.039-.009-27.341-9.236a4.529 4.529 0 0 0-5.739 2.841l-9.134 27.038a4.529 4.529 0 0 0 2.841 5.739l12.364 4.177c5.923 2.001 9.103 8.425 7.102 14.348l-31.068 91.969c-2.001 5.923-8.425 9.103-14.348 7.102l-12.364-4.177a4.529 4.529 0 0 0-5.739 2.841l-9.134 27.038a4.529 4.529 0 0 0 2.841 5.739l35.341 11.938a4.529 4.529 0 0 1 2.841 5.739l-4.002 11.848a4.529 4.529 0 0 0 2.841 5.739l27.038 9.134a4.529 4.529 0 0 0 5.739-2.841l4.002-11.848a4.529 4.529 0 0 1 5.739-2.841l7.841 2.649a4.529 4.529 0 0 1 2.841 5.739l-4.002 11.848a4.529 4.529 0 0 0 2.841 5.739l27.038 9.134a4.529 4.529 0 0 0 5.739-2.841l4.365-12.921a4.532 4.532 0 0 1 5.149-2.99c37.349 7.104 62.472-9.35 71.482-36.02zm-78.607-125.586a4.529 4.529 0 0 1 5.739-2.841l25.504 8.615c13.001 4.392 19.423 12.819 15.553 24.276-3.381 10.009-11.986 15.644-26.886 10.611l-25.909-8.752a4.529 4.529 0 0 1-2.841-5.739zm-8.673 116.91-23.373-7.896a4.529 4.529 0 0 1-2.841-5.739l10.867-32.17a4.529 4.529 0 0 1 5.739-2.841l24.366 8.231c17.205 5.812 21.587 16.431 17.667 28.034-4.463 13.212-14.633 18.391-32.425 12.381z" />
                <path
                    d="M269.73 399.114a5.048 5.048 0 0 1-1.614-.267l-27.038-9.134c-1.272-.43-2.301-1.329-2.897-2.533s-.687-2.568-.257-3.84l4.003-11.848a4.034 4.034 0 0 0-2.527-5.105l-7.842-2.649a4.032 4.032 0 0 0-5.105 2.527l-4.002 11.848a5.035 5.035 0 0 1-6.373 3.155l-27.039-9.134a5.034 5.034 0 0 1-3.154-6.373l4.003-11.848a4.035 4.035 0 0 0-2.527-5.106l-35.342-11.938a5.034 5.034 0 0 1-3.154-6.373l9.134-27.038a5.037 5.037 0 0 1 6.373-3.155l12.364 4.177c2.737.925 5.671.729 8.263-.554a10.75 10.75 0 0 0 5.451-6.234l31.068-91.969c.925-2.738.729-5.673-.554-8.263s-3.497-4.526-6.235-5.451l-12.364-4.177a5.034 5.034 0 0 1-3.154-6.373l9.134-27.038a5.037 5.037 0 0 1 6.373-3.155l35.343 11.935a4.033 4.033 0 0 0 5.105-2.527l4.565-13.516a5.033 5.033 0 0 1 6.373-3.155l27.039 9.134a5.034 5.034 0 0 1 3.154 6.373l-4.566 13.517a4.035 4.035 0 0 0 2.527 5.106l7.842 2.649a4.033 4.033 0 0 0 5.105-2.527l4.565-13.516a5.036 5.036 0 0 1 6.373-3.155l27.038 9.134a5.034 5.034 0 0 1 3.155 6.373l-4.944 14.634c-.637 1.886.236 3.99 2.03 4.893 28.95 14.571 41.112 38.429 32.535 63.821-5.259 15.571-16.003 26.307-30.252 30.231a4.17 4.17 0 0 0-2.923 2.868c-.39 1.345-.077 2.708.858 3.739 6.953 7.662 17.478 23.891 9.845 46.487-4.651 13.77-13.417 24.474-25.349 30.954-12.737 6.919-28.887 8.785-46.7 5.397-1.974-.375-3.943.768-4.582 2.658l-4.365 12.921a4.998 4.998 0 0 1-2.532 2.897 5.015 5.015 0 0 1-2.227.524zm-39.458-36.589a4.99 4.99 0 0 1 1.605.265l7.842 2.649a5.034 5.034 0 0 1 3.154 6.373l-4.003 11.849a4 4 0 0 0 .206 3.076 4.006 4.006 0 0 0 2.321 2.03l27.038 9.134a4.004 4.004 0 0 0 3.076-.206 3.995 3.995 0 0 0 2.029-2.321l4.365-12.921c.798-2.361 3.256-3.787 5.717-3.321 34.629 6.587 61.14-6.755 70.914-35.688l.474.16-.474-.16c7.469-22.112-2.833-37.996-9.638-45.496a4.898 4.898 0 0 1-1.078-4.69 5.16 5.16 0 0 1 3.617-3.553c13.919-3.834 24.421-14.341 29.57-29.587 8.403-24.877-3.573-48.282-32.037-62.608-2.236-1.126-3.323-3.751-2.528-6.106l4.944-14.634a4.033 4.033 0 0 0-2.528-5.105l-27.038-9.134a4.032 4.032 0 0 0-5.105 2.527l-4.565 13.516a5.035 5.035 0 0 1-6.373 3.155l-7.842-2.649a5.034 5.034 0 0 1-3.154-6.373l4.566-13.517a4.034 4.034 0 0 0-2.527-5.105l-27.039-9.134a4.032 4.032 0 0 0-5.105 2.527l-4.565 13.516a5.035 5.035 0 0 1-6.373 3.155l-35.343-11.935a4.032 4.032 0 0 0-5.105 2.527l-9.134 27.038a4.035 4.035 0 0 0 2.527 5.106l12.364 4.177c2.991 1.01 5.41 3.125 6.811 5.955s1.616 6.035.605 9.027l-31.068 91.969a11.746 11.746 0 0 1-5.955 6.811 11.742 11.742 0 0 1-9.026.605l-12.364-4.177a4.032 4.032 0 0 0-5.105 2.527l-9.134 27.038a4.033 4.033 0 0 0 2.527 5.105l35.342 11.938a5.034 5.034 0 0 1 3.154 6.373l-4.003 11.849a4.034 4.034 0 0 0 2.527 5.105l27.039 9.134a4.032 4.032 0 0 0 5.105-2.527l4.002-11.848a5.037 5.037 0 0 1 4.768-3.419zm50.646-24.623c-3.948 0-8.408-.835-13.347-2.503l-23.373-7.896a4.993 4.993 0 0 1-2.897-2.533 4.994 4.994 0 0 1-.257-3.84l10.867-32.17a4.998 4.998 0 0 1 2.532-2.897 4.996 4.996 0 0 1 3.841-.257l24.365 8.231c8.337 2.816 14.067 6.878 17.029 12.071 2.733 4.791 3.053 10.375.951 16.596-2.334 6.908-6.202 11.518-11.497 13.7-2.421.998-5.165 1.497-8.215 1.497zm-24.247-51.362c-.611 0-1.22.141-1.783.42a3.995 3.995 0 0 0-2.029 2.321l-10.867 32.17a4 4 0 0 0 .206 3.076 4.001 4.001 0 0 0 2.321 2.029l23.373 7.896c8.518 2.877 15.534 3.223 20.86 1.029 5.016-2.068 8.693-6.474 10.931-13.096 2.007-5.939 1.713-11.249-.872-15.781-2.838-4.974-8.383-8.884-16.481-11.619l-24.365-8.231a4.034 4.034 0 0 0-1.293-.214zm49.838-25.485c-3.139 0-6.599-.635-10.355-1.904l-25.909-8.752a5.034 5.034 0 0 1-3.154-6.373l8.841-26.169c.43-1.272 1.329-2.301 2.533-2.897s2.567-.687 3.84-.257l25.503 8.615c13.851 4.679 19.634 13.758 15.867 24.909-1.814 5.373-5.062 9.26-9.389 11.241-2.313 1.058-4.91 1.587-7.776 1.587zm-25.818-45.619c-.611 0-1.219.141-1.783.42a3.995 3.995 0 0 0-2.029 2.321l-8.841 26.169a4.034 4.034 0 0 0 2.527 5.106l25.909 8.752c6.938 2.343 12.791 2.463 17.395.354 4.129-1.89 7.109-5.473 8.858-10.651 3.616-10.705-1.797-19.101-15.24-23.642l-25.503-8.615a4.03 4.03 0 0 0-1.293-.214z" />
            </g>
        </svg>
    </g>
    <g
        transform="translate(29.0 24.0) rotate(0.0 11.5 7.0) scale(0.017346891060015718 0.01712425111980371)">
        <svg width="1325.886" height="817.554" viewBox="0 0 1325.886 817.554">
            <rect fill="#1e284c" height="802.554" rx="121.823" width="1232.388" x="67.229" y="7.5" />
            <path
                d="M1177.794 817.554H189.053c-71.309 0-129.323-58.014-129.323-129.323V129.323C59.73 58.014 117.744 0 189.053 0h988.741c71.309 0 129.323 58.014 129.323 129.323v558.908c0 71.309-58.015 129.323-129.323 129.323zM189.053 15C126.015 15 74.73 66.285 74.73 129.323v558.908c0 63.038 51.285 114.323 114.323 114.323h988.741c63.038 0 114.323-51.285 114.323-114.323V129.323c0-63.038-51.285-114.323-114.323-114.323H189.053z"
                fill="#1e284c" />
            <rect fill="#95ff80" height="802.554" rx="121.823" width="1232.388" x="7.5" y="7.5" />
            <path
                d="M1118.065 817.554H129.323C58.015 817.554 0 759.54 0 688.231V129.323C0 58.014 58.015 0 129.323 0h988.741c71.309 0 129.324 58.014 129.324 129.323v558.908c0 71.309-58.015 129.323-129.323 129.323zM129.323 15C66.285 15 15 66.285 15 129.323v558.908c0 63.038 51.285 114.323 114.323 114.323h988.741c63.038 0 114.323-51.285 114.323-114.323V129.323c0-63.038-51.285-114.323-114.323-114.323H129.323z"
                fill="#1e284c" />
            <path
                d="M1084.176 756.118h-40.63c-4.143 0-7.5-3.358-7.5-7.5s3.357-7.5 7.5-7.5h40.842a7.5 7.5 0 0 1 .025 15h-.238zm-81.259 0h-40.63c-4.143 0-7.5-3.358-7.5-7.5s3.357-7.5 7.5-7.5h40.63a7.5 7.5 0 0 1 0 15zm-81.26 0h-40.63c-4.143 0-7.5-3.358-7.5-7.5s3.357-7.5 7.5-7.5h40.63c4.143 0 7.5 3.358 7.5 7.5s-3.357 7.5-7.5 7.5zm-81.259 0h-40.63c-4.143 0-7.5-3.358-7.5-7.5s3.357-7.5 7.5-7.5h40.63a7.5 7.5 0 0 1 0 15zm-81.26 0h-40.629c-4.143 0-7.5-3.358-7.5-7.5s3.357-7.5 7.5-7.5h40.629c4.143 0 7.5 3.358 7.5 7.5s-3.357 7.5-7.5 7.5zm-81.259 0h-40.63a7.5 7.5 0 0 1 0-15h40.63c4.143 0 7.5 3.358 7.5 7.5s-3.357 7.5-7.5 7.5zm-81.26 0H555.99c-4.143 0-7.5-3.358-7.5-7.5s3.357-7.5 7.5-7.5h40.629c4.143 0 7.5 3.358 7.5 7.5s-3.357 7.5-7.5 7.5zm-81.259 0h-40.63a7.5 7.5 0 0 1 0-15h40.63c4.143 0 7.5 3.358 7.5 7.5s-3.357 7.5-7.5 7.5zm-81.26 0h-40.629c-4.143 0-7.5-3.358-7.5-7.5s3.357-7.5 7.5-7.5H434.1a7.5 7.5 0 0 1 0 15zm-81.259 0h-40.63c-4.143 0-7.5-3.358-7.5-7.5s3.357-7.5 7.5-7.5h40.63c4.143 0 7.5 3.358 7.5 7.5s-3.357 7.5-7.5 7.5zm-81.26 0h-40.629c-4.143 0-7.5-3.358-7.5-7.5s3.357-7.5 7.5-7.5h40.629a7.5 7.5 0 0 1 0 15zm-81.259 0h-27.113c-4.867 0-9.764-.357-14.554-1.061a7.498 7.498 0 0 1-6.33-8.51c.602-4.099 4.421-6.931 8.51-6.33 4.071.598 8.234.901 12.374.901h27.113c4.143 0 7.5 3.358 7.5 7.5s-3.357 7.5-7.5 7.5zm933.365-8.88a7.5 7.5 0 0 1-3.218-14.278c11.188-5.306 21.313-13.169 29.278-22.74a7.501 7.501 0 0 1 11.53 9.597c-9.351 11.232-21.238 20.463-34.38 26.696a7.475 7.475 0 0 1-3.209.725zM112.12 740.696a7.468 7.468 0 0 1-4.14-1.251c-12.152-8.063-22.614-18.883-30.256-31.29a7.5 7.5 0 0 1 12.771-7.866c6.51 10.569 15.424 19.787 25.777 26.658a7.499 7.499 0 0 1-4.153 13.75zm1061.875-53.989c-.63 0-1.27-.08-1.908-.248a7.5 7.5 0 0 1-5.352-9.157 84.778 84.778 0 0 0 2.765-21.51v-16.95c0-4.142 3.357-7.5 7.5-7.5s7.5 3.358 7.5 7.5v16.95a99.812 99.812 0 0 1-3.255 25.316 7.504 7.504 0 0 1-7.25 5.599zM70.951 673.638a7.5 7.5 0 0 1-7.444-6.665 100.975 100.975 0 0 1-.624-11.179v-30.261c0-4.142 3.357-7.5 7.5-7.5s7.5 3.358 7.5 7.5v30.259c0 3.177.18 6.377.53 9.51a7.5 7.5 0 0 1-7.462 8.336zM1177 605.712a7.5 7.5 0 0 1-7.5-7.5v-40.63c0-4.142 3.357-7.5 7.5-7.5s7.5 3.358 7.5 7.5v40.63a7.5 7.5 0 0 1-7.5 7.5zM70.383 592.403a7.5 7.5 0 0 1-7.5-7.5v-40.63c0-4.142 3.357-7.5 7.5-7.5s7.5 3.358 7.5 7.5v40.63a7.5 7.5 0 0 1-7.5 7.5zM1177 524.453a7.5 7.5 0 0 1-7.5-7.5v-40.63c0-4.142 3.357-7.5 7.5-7.5s7.5 3.358 7.5 7.5v40.63a7.5 7.5 0 0 1-7.5 7.5zM70.383 511.144a7.5 7.5 0 0 1-7.5-7.5v-40.63c0-4.142 3.357-7.5 7.5-7.5s7.5 3.358 7.5 7.5v40.63a7.5 7.5 0 0 1-7.5 7.5zM1177 443.194a7.5 7.5 0 0 1-7.5-7.5v-40.63c0-4.142 3.357-7.5 7.5-7.5s7.5 3.358 7.5 7.5v40.63a7.5 7.5 0 0 1-7.5 7.5zM70.383 429.885a7.5 7.5 0 0 1-7.5-7.5v-40.63c0-4.142 3.357-7.5 7.5-7.5s7.5 3.358 7.5 7.5v40.63a7.5 7.5 0 0 1-7.5 7.5zM1177 361.935a7.5 7.5 0 0 1-7.5-7.5v-40.63c0-4.142 3.357-7.5 7.5-7.5s7.5 3.358 7.5 7.5v40.63a7.5 7.5 0 0 1-7.5 7.5zM70.383 348.626a7.5 7.5 0 0 1-7.5-7.5v-40.63c0-4.142 3.357-7.5 7.5-7.5s7.5 3.358 7.5 7.5v40.63a7.5 7.5 0 0 1-7.5 7.5zM1177 280.676a7.5 7.5 0 0 1-7.5-7.5v-40.63c0-4.142 3.357-7.5 7.5-7.5s7.5 3.358 7.5 7.5v40.63a7.5 7.5 0 0 1-7.5 7.5zM70.383 267.367a7.5 7.5 0 0 1-7.5-7.5v-40.63c0-4.142 3.357-7.5 7.5-7.5s7.5 3.358 7.5 7.5v40.63a7.5 7.5 0 0 1-7.5 7.5zM1177 199.417a7.5 7.5 0 0 1-7.5-7.5v-30.153a85.98 85.98 0 0 0-.541-9.607 7.5 7.5 0 1 1 14.904-1.688c.423 3.729.637 7.529.637 11.295v30.153a7.5 7.5 0 0 1-7.5 7.5zM70.383 186.108a7.5 7.5 0 0 1-7.5-7.5v-16.844a99.85 99.85 0 0 1 3.283-25.427 7.501 7.501 0 0 1 14.506 3.821 84.811 84.811 0 0 0-2.789 21.605v16.844a7.5 7.5 0 0 1-7.5 7.5zm1092.841-65.363a7.495 7.495 0 0 1-6.388-3.56c-6.523-10.563-15.448-19.771-25.809-26.629a7.5 7.5 0 0 1 8.28-12.508c12.16 8.049 22.635 18.857 30.291 31.255a7.5 7.5 0 0 1-6.374 11.442zM91.937 109.955a7.5 7.5 0 0 1-5.755-12.305c9.363-11.222 21.262-20.44 34.409-26.657a7.5 7.5 0 1 1 6.412 13.56c-11.192 5.293-21.325 13.144-29.304 22.706a7.484 7.484 0 0 1-5.763 2.696zm1005.607-32.552c-.36 0-.725-.026-1.092-.079a85.334 85.334 0 0 0-12.276-.887h-27.219c-4.143 0-7.5-3.358-7.5-7.5s3.357-7.5 7.5-7.5h27.219c4.83 0 9.688.351 14.44 1.044a7.501 7.501 0 0 1-1.072 14.923zm-81.217-.967h-40.63c-4.143 0-7.5-3.358-7.5-7.5s3.357-7.5 7.5-7.5h40.63a7.5 7.5 0 0 1 0 15zm-81.26 0h-40.629c-4.143 0-7.5-3.358-7.5-7.5s3.357-7.5 7.5-7.5h40.629c4.143 0 7.5 3.358 7.5 7.5s-3.357 7.5-7.5 7.5zm-81.259 0h-40.63a7.5 7.5 0 0 1 0-15h40.63c4.143 0 7.5 3.358 7.5 7.5s-3.357 7.5-7.5 7.5zm-81.26 0h-40.629c-4.143 0-7.5-3.358-7.5-7.5s3.357-7.5 7.5-7.5h40.629c4.143 0 7.5 3.358 7.5 7.5s-3.357 7.5-7.5 7.5zm-81.259 0h-40.63a7.5 7.5 0 0 1 0-15h40.63c4.143 0 7.5 3.358 7.5 7.5s-3.357 7.5-7.5 7.5zm-81.26 0H569.4c-4.143 0-7.5-3.358-7.5-7.5s3.357-7.5 7.5-7.5h40.629a7.5 7.5 0 0 1 0 15zm-81.259 0h-40.63c-4.143 0-7.5-3.358-7.5-7.5s3.357-7.5 7.5-7.5h40.63c4.143 0 7.5 3.358 7.5 7.5s-3.357 7.5-7.5 7.5zm-81.259 0h-40.63c-4.143 0-7.5-3.358-7.5-7.5s3.357-7.5 7.5-7.5h40.63c4.143 0 7.5 3.358 7.5 7.5s-3.357 7.5-7.5 7.5zm-81.26 0h-40.63c-4.143 0-7.5-3.358-7.5-7.5s3.357-7.5 7.5-7.5h40.63c4.143 0 7.5 3.358 7.5 7.5s-3.357 7.5-7.5 7.5zm-81.259 0h-40.63c-4.143 0-7.5-3.358-7.5-7.5s3.357-7.5 7.5-7.5h40.63a7.5 7.5 0 0 1 0 15zm-81.26 0h-40.63c-4.143 0-7.5-3.358-7.5-7.5s3.357-7.5 7.5-7.5h40.63c4.143 0 7.5 3.358 7.5 7.5s-3.357 7.5-7.5 7.5z"
                fill="#1e284c" />
            <path
                d="M1028.707 310.956h259.679c16.557 0 30 13.443 30 30v135.642c0 16.557-13.443 30-30 30h-259.679c-53.989 0-97.821-43.832-97.821-97.821s43.832-97.821 97.821-97.821z"
                fill="#95ff80" />
            <path
                d="M1288.386 514.098h-259.679c-58.074 0-105.321-47.247-105.321-105.321s47.247-105.321 105.321-105.321h259.679c20.678 0 37.5 16.823 37.5 37.5v135.642c0 20.677-16.822 37.5-37.5 37.5zm-259.679-195.642c-49.804 0-90.321 40.518-90.321 90.321s40.518 90.321 90.321 90.321h259.679c12.406 0 22.5-10.094 22.5-22.5V340.956c0-12.406-10.094-22.5-22.5-22.5z"
                fill="#1e284c" />
            <ellipse cx="1031.052" cy="408.777" fill="#dea2ff" rx="59.016" ry="59.472" />
            <path
                d="M1031.052 475.749c-36.677 0-66.516-30.044-66.516-66.972s29.839-66.972 66.516-66.972 66.516 30.044 66.516 66.972-29.839 66.972-66.516 66.972zm0-118.945c-28.406 0-51.516 23.315-51.516 51.972s23.109 51.972 51.516 51.972 51.516-23.315 51.516-51.972-23.109-51.972-51.516-51.972z"
                fill="#1e284c" />
        </svg>
    </g>
    <g
        transform="translate(43.0 40.0) rotate(0.0 9.0 7.0) scale(0.044359886832999816 0.04409782156761456)">
        <svg width="405.772" height="317.476" viewBox="0 0 405.772 317.476">
            <rect fill="#dea2ff" height="302.476" rx="40" width="390.772" x="7.5" y="7.5" />
            <g fill="#1e284c">
                <path
                    d="M358.272 317.476H47.5c-26.192 0-47.5-21.308-47.5-47.5V47.5C0 21.309 21.308 0 47.5 0h310.772c26.191 0 47.5 21.309 47.5 47.5v222.476c0 26.191-21.309 47.5-47.5 47.5zM47.5 15C29.579 15 15 29.58 15 47.5v222.476c0 17.92 14.579 32.5 32.5 32.5h310.772c17.92 0 32.5-14.58 32.5-32.5V47.5c0-17.92-14.58-32.5-32.5-32.5z" />
                <path
                    d="M249.556 77.211c47.57 17.481 71.962 70.214 54.481 117.784l-86.133-31.651 31.651-86.133z" />
                <path
                    d="M304.038 199.996a5 5 0 0 1-1.725-.307l-86.133-31.651a5.001 5.001 0 0 1-2.969-6.418l31.651-86.133a5.001 5.001 0 0 1 6.418-2.969c50.082 18.404 75.854 74.121 57.45 124.202a5 5 0 0 1-4.693 3.275zm-79.715-39.62 76.613 28.153c12.778-42.04-8.149-87.283-48.46-104.766z" />
            </g>
            <path
                d="m196.867 140.238 31.651-86.133c-18.514-6.803-37.81-7.264-55.505-2.485a92.267 92.267 0 0 0-23.184 9.833l47.022 78.655-47.022-78.655"
                fill="#95ff80" />
            <path
                d="M196.867 145.239a4.99 4.99 0 0 1-1.724-.308 4.986 4.986 0 0 1-2.892-2.774l-46.713-78.138-.004-.006a5 5 0 0 1 1.73-6.851l.012-.007a97.268 97.268 0 0 1 24.434-10.361c19.384-5.235 39.624-4.329 58.533 2.618a5.001 5.001 0 0 1 2.969 6.418l-31.651 86.133a5.002 5.002 0 0 1-4.694 3.277zm-40.104-81.932 39.047 65.314 26.243-71.416c-15.569-4.742-31.97-5.017-47.735-.758a87.032 87.032 0 0 0-17.555 6.859z"
                fill="#95ff80" />
            <path
                d="M187.868 177.238 140.83 98.454c-17.431 10.393-31.549 26.6-39.095 47.133-17.48 47.57 6.912 100.303 54.481 117.784 47.57 17.48 100.304-6.912 117.784-54.481l-86.133-31.651z"
                fill="#fff" />
            <path
                d="M187.921 274.053c-11.259 0-22.547-1.99-33.43-5.989-24.26-8.915-43.597-26.744-54.448-50.203s-11.917-49.739-3.002-74c7.623-20.745 22.265-38.396 41.227-49.703a5 5 0 0 1 6.854 1.731l46.131 77.265 84.471 31.041a5.001 5.001 0 0 1 2.969 6.418c-8.915 24.26-26.744 43.597-50.203 54.448-12.935 5.983-26.73 8.991-40.569 8.991zm-48.749-168.621c-14.952 10.141-26.486 24.847-32.745 41.878-7.994 21.753-7.038 45.317 2.692 66.352 9.729 21.034 27.068 37.021 48.821 45.014 21.753 7.994 45.317 7.038 66.352-2.691 19.514-9.026 34.684-24.603 43.158-44.177l-81.307-29.878a5 5 0 0 1-2.568-2.13l-44.402-74.368z"
                fill="#fff" />
        </svg>
    </g>
    <g
        transform="translate(22.0 49.0) rotate(0.0 9.5 6.0) scale(0.024013063106329845 0.024284320828257235)">
        <svg width="791.236" height="494.146" viewBox="0 0 791.236 494.146">
            <rect fill="#95ff80" height="291.096" rx="7.5" width="82.262" y="203.049" />
            <path
                d="M142.024 108.973H82.262a7.5 7.5 0 0 0-7.5 7.5v377.672h67.262a7.5 7.5 0 0 0 7.5-7.5V116.473a7.5 7.5 0 0 0-7.5-7.5z"
                fill="#dea2ff" />
            <rect fill="#95ff80" height="347.365" rx="7.5" width="82.262" x="213.904" y="146.78" />
            <path
                d="M355.928 14.897h-59.762a7.5 7.5 0 0 0-7.5 7.5v471.748h67.262a7.5 7.5 0 0 0 7.5-7.5V22.397a7.5 7.5 0 0 0-7.5-7.5z"
                fill="#dea2ff" />
            <rect fill="#95ff80" height="261.602" rx="7.5" width="82.262" x="641.712" y="232.543" />
            <path
                d="M783.736 0h-59.762a7.5 7.5 0 0 0-7.5 7.5v486.646h67.262a7.5 7.5 0 0 0 7.5-7.5V7.5a7.5 7.5 0 0 0-7.5-7.5z"
                fill="#dea2ff" />
            <rect fill="#dea2ff" height="207.257" rx="7.5" width="82.262" x="495.07" y="286.888" />
            <path
                d="M495.07 203.049h-59.762a7.5 7.5 0 0 0-7.5 7.5v276.097a7.5 7.5 0 0 0 7.5 7.5h67.262V210.549a7.5 7.5 0 0 0-7.5-7.5z"
                fill="#95ff80" />
        </svg>
    </g>
</svg>